<svg xmlns="http://www.w3.org/2000/svg" xmlns:xlink="http://www.w3.org/1999/xlink" width="317" zoomAndPan="magnify" viewBox="0 0 237.75 81.749997" height="109" preserveAspectRatio="xMidYMid meet" version="1.0"><defs><g/><clipPath id="830e9976d7"><path d="M 10.992188 12.355469 L 83.160156 12.355469 L 83.160156 70.820312 L 10.992188 70.820312 Z M 10.992188 12.355469 " clip-rule="nonzero"/></clipPath><clipPath id="92b1cbe3c0"><path d="M 22.957031 12.355469 L 71.183594 12.355469 C 74.355469 12.355469 77.398438 13.617188 79.640625 15.859375 C 81.886719 18.101562 83.144531 21.144531 83.144531 24.320312 L 83.144531 58.855469 C 83.144531 62.03125 81.886719 65.074219 79.640625 67.316406 C 77.398438 69.558594 74.355469 70.820312 71.183594 70.820312 L 22.957031 70.820312 C 19.78125 70.820312 16.738281 69.558594 14.496094 67.316406 C 12.253906 65.074219 10.992188 62.03125 10.992188 58.855469 L 10.992188 24.320312 C 10.992188 21.144531 12.253906 18.101562 14.496094 15.859375 C 16.738281 13.617188 19.78125 12.355469 22.957031 12.355469 Z M 22.957031 12.355469 " clip-rule="nonzero"/></clipPath><clipPath id="98c3ad9acf"><path d="M 20.3125 12.472656 L 105.484375 12.472656 L 105.484375 70.820312 L 20.3125 70.820312 Z M 20.3125 12.472656 " clip-rule="nonzero"/></clipPath><clipPath id="b37889f4b5"><path d="M 0.238281 0 L 6 0 L 6 81.5 L 0.238281 81.5 Z M 0.238281 0 " clip-rule="nonzero"/></clipPath><clipPath id="8352389ea8"><path d="M 77 0 L 237.261719 0 L 237.261719 7 L 77 7 Z M 77 0 " clip-rule="nonzero"/></clipPath><clipPath id="d0d48ed987"><path d="M 231 0 L 237 0 L 237 81.5 L 231 81.5 Z M 231 0 " clip-rule="nonzero"/></clipPath><clipPath id="f21545a456"><path d="M 80.175781 12.296875 L 228.164062 12.296875 L 228.164062 70.761719 L 80.175781 70.761719 Z M 80.175781 12.296875 " clip-rule="nonzero"/></clipPath><clipPath id="0acd163faa"><path d="M 92.886719 12.296875 L 215.363281 12.296875 C 218.734375 12.296875 221.964844 13.636719 224.351562 16.019531 C 226.734375 18.402344 228.074219 21.636719 228.074219 25.007812 L 228.074219 58.050781 C 228.074219 61.421875 226.734375 64.65625 224.351562 67.039062 C 221.964844 69.421875 218.734375 70.761719 215.363281 70.761719 L 92.886719 70.761719 C 89.515625 70.761719 86.28125 69.421875 83.898438 67.039062 C 81.515625 64.65625 80.175781 61.421875 80.175781 58.050781 L 80.175781 25.007812 C 80.175781 21.636719 81.515625 18.402344 83.898438 16.019531 C 86.28125 13.636719 89.515625 12.296875 92.886719 12.296875 Z M 92.886719 12.296875 " clip-rule="nonzero"/></clipPath><clipPath id="450ea71218"><path d="M 0.238281 48 L 113 48 L 113 81.5 L 0.238281 81.5 Z M 0.238281 48 " clip-rule="nonzero"/></clipPath></defs><g clip-path="url(#830e9976d7)"><g clip-path="url(#92b1cbe3c0)"><path fill="#f59e0b" d="M 10.992188 12.355469 L 83.160156 12.355469 L 83.160156 70.820312 L 10.992188 70.820312 Z M 10.992188 12.355469 " fill-opacity="1" fill-rule="nonzero"/></g></g><g clip-path="url(#98c3ad9acf)"><path fill="#f59e0b" d="M 20.3125 12.472656 L 105.554688 12.472656 L 105.554688 70.820312 L 20.3125 70.820312 Z M 20.3125 12.472656 " fill-opacity="1" fill-rule="nonzero"/></g><g clip-path="url(#b37889f4b5)"><path stroke-linecap="butt" transform="matrix(0.00000000130501, -0.747713, 0.747713, 0.00000000130501, 0.328984, 81.143123)" fill="none" stroke-linejoin="miter" d="M -0.00188391 3.499106 L 107.341015 3.499106 " stroke="#16a34a" stroke-width="7" stroke-opacity="1" stroke-miterlimit="4"/></g><g clip-path="url(#8352389ea8)"><path stroke-linecap="butt" transform="matrix(-0.747713, 0, 0, -0.747713, 235.286044, 6.121322)" fill="none" stroke-linejoin="miter" d="M 0.00118674 3.500561 L 207.467055 3.500561 " stroke="#f59e0b" stroke-width="7" stroke-opacity="1" stroke-miterlimit="4"/></g><g clip-path="url(#d0d48ed987)"><path stroke-linecap="butt" transform="matrix(0.00000000130501, 0.747713, -0.747713, 0.00000000130501, 236.601435, 0.743805)" fill="none" stroke-linejoin="miter" d="M -0.00216379 3.500085 L 104.039002 3.500085 " stroke="#f59e0b" stroke-width="7" stroke-opacity="1" stroke-miterlimit="4"/></g><g clip-path="url(#f21545a456)"><g clip-path="url(#0acd163faa)"><path fill="#16a34a" d="M 80.175781 12.296875 L 228.164062 12.296875 L 228.164062 70.761719 L 80.175781 70.761719 Z M 80.175781 12.296875 " fill-opacity="1" fill-rule="nonzero"/></g></g><g clip-path="url(#450ea71218)"><path stroke-linecap="butt" transform="matrix(0.747713, 0.000163751, -0.000163751, 0.747713, 1.061474, 75.896264)" fill="none" stroke-linejoin="miter" d="M 0.0021386 3.497938 L 109.779544 3.500017 " stroke="#16a34a" stroke-width="7" stroke-opacity="1" stroke-miterlimit="4"/></g><g fill="#ffffff" fill-opacity="1"><g transform="translate(28.032268, 49.042803)"><g><path d="M 2.328125 -19.59375 L 6.859375 -19.59375 L 6.859375 0 L 2.328125 0 Z M 2.328125 -19.59375 "/></g></g></g><g fill="#ffffff" fill-opacity="1"><g transform="translate(39.342089, 49.042803)"><g><path d="M 11.171875 -15.28125 C 13.035156 -15.28125 14.539062 -14.71875 15.6875 -13.59375 C 16.84375 -12.476562 17.421875 -10.820312 17.421875 -8.625 L 17.421875 0 L 13.046875 0 L 13.046875 -7.953125 C 13.046875 -9.148438 12.785156 -10.039062 12.265625 -10.625 C 11.742188 -11.21875 10.988281 -11.515625 10 -11.515625 C 8.894531 -11.515625 8.015625 -11.171875 7.359375 -10.484375 C 6.710938 -9.804688 6.390625 -8.796875 6.390625 -7.453125 L 6.390625 0 L 2.015625 0 L 2.015625 -15.0625 L 6.1875 -15.0625 L 6.1875 -13.296875 C 6.769531 -13.929688 7.488281 -14.421875 8.34375 -14.765625 C 9.195312 -15.109375 10.140625 -15.28125 11.171875 -15.28125 Z M 11.171875 -15.28125 "/></g></g></g><g fill="#ffffff" fill-opacity="1"><g transform="translate(60.813183, 49.042803)"><g><path d="M 11.171875 -15.28125 C 13.035156 -15.28125 14.539062 -14.71875 15.6875 -13.59375 C 16.84375 -12.476562 17.421875 -10.820312 17.421875 -8.625 L 17.421875 0 L 13.046875 0 L 13.046875 -7.953125 C 13.046875 -9.148438 12.785156 -10.039062 12.265625 -10.625 C 11.742188 -11.21875 10.988281 -11.515625 10 -11.515625 C 8.894531 -11.515625 8.015625 -11.171875 7.359375 -10.484375 C 6.710938 -9.804688 6.390625 -8.796875 6.390625 -7.453125 L 6.390625 0 L 2.015625 0 L 2.015625 -15.0625 L 6.1875 -15.0625 L 6.1875 -13.296875 C 6.769531 -13.929688 7.488281 -14.421875 8.34375 -14.765625 C 9.195312 -15.109375 10.140625 -15.28125 11.171875 -15.28125 Z M 11.171875 -15.28125 "/></g></g></g><g fill="#ffffff" fill-opacity="1"><g transform="translate(82.288219, 49.042803)"><g/></g></g><g fill="#ffffff" fill-opacity="1"><g transform="translate(86.360778, 49.042803)"><g><path d="M 16.71875 -10.1875 C 17.832031 -9.832031 18.707031 -9.238281 19.34375 -8.40625 C 19.976562 -7.582031 20.296875 -6.5625 20.296875 -5.34375 C 20.296875 -3.625 19.628906 -2.300781 18.296875 -1.375 C 16.960938 -0.457031 15.015625 0 12.453125 0 L 2.328125 0 L 2.328125 -19.59375 L 11.90625 -19.59375 C 14.289062 -19.59375 16.117188 -19.132812 17.390625 -18.21875 C 18.671875 -17.3125 19.3125 -16.070312 19.3125 -14.5 C 19.3125 -13.550781 19.082031 -12.703125 18.625 -11.953125 C 18.175781 -11.210938 17.539062 -10.625 16.71875 -10.1875 Z M 6.828125 -16.1875 L 6.828125 -11.5625 L 11.34375 -11.5625 C 12.457031 -11.5625 13.300781 -11.753906 13.875 -12.140625 C 14.457031 -12.535156 14.75 -13.117188 14.75 -13.890625 C 14.75 -14.648438 14.457031 -15.222656 13.875 -15.609375 C 13.300781 -15.992188 12.457031 -16.1875 11.34375 -16.1875 Z M 12.125 -3.421875 C 13.320312 -3.421875 14.222656 -3.613281 14.828125 -4 C 15.429688 -4.394531 15.734375 -5.003906 15.734375 -5.828125 C 15.734375 -7.453125 14.53125 -8.265625 12.125 -8.265625 L 6.828125 -8.265625 L 6.828125 -3.421875 Z M 12.125 -3.421875 "/></g></g></g><g fill="#ffffff" fill-opacity="1"><g transform="translate(109.903315, 49.042803)"><g><path d="M 9.1875 0.21875 C 7.59375 0.21875 6.164062 -0.109375 4.90625 -0.765625 C 3.65625 -1.429688 2.671875 -2.351562 1.953125 -3.53125 C 1.242188 -4.707031 0.890625 -6.039062 0.890625 -7.53125 C 0.890625 -9.019531 1.242188 -10.351562 1.953125 -11.53125 C 2.671875 -12.707031 3.65625 -13.625 4.90625 -14.28125 C 6.164062 -14.945312 7.59375 -15.28125 9.1875 -15.28125 C 10.769531 -15.28125 12.1875 -14.945312 13.4375 -14.28125 C 14.6875 -13.625 15.664062 -12.707031 16.375 -11.53125 C 17.082031 -10.351562 17.4375 -9.019531 17.4375 -7.53125 C 17.4375 -6.039062 17.082031 -4.707031 16.375 -3.53125 C 15.664062 -2.351562 14.6875 -1.429688 13.4375 -0.765625 C 12.1875 -0.109375 10.769531 0.21875 9.1875 0.21875 Z M 9.1875 -3.359375 C 10.300781 -3.359375 11.21875 -3.734375 11.9375 -4.484375 C 12.65625 -5.242188 13.015625 -6.257812 13.015625 -7.53125 C 13.015625 -8.800781 12.65625 -9.8125 11.9375 -10.5625 C 11.21875 -11.320312 10.300781 -11.703125 9.1875 -11.703125 C 8.0625 -11.703125 7.132812 -11.320312 6.40625 -10.5625 C 5.675781 -9.8125 5.3125 -8.800781 5.3125 -7.53125 C 5.3125 -6.257812 5.675781 -5.242188 6.40625 -4.484375 C 7.132812 -3.734375 8.0625 -3.359375 9.1875 -3.359375 Z M 9.1875 -3.359375 "/></g></g></g><g fill="#ffffff" fill-opacity="1"><g transform="translate(130.366681, 49.042803)"><g><path d="M 17.359375 -20.78125 L 17.359375 0 L 13.1875 0 L 13.1875 -1.734375 C 12.101562 -0.429688 10.535156 0.21875 8.484375 0.21875 C 7.066406 0.21875 5.78125 -0.0976562 4.625 -0.734375 C 3.476562 -1.367188 2.578125 -2.269531 1.921875 -3.4375 C 1.273438 -4.613281 0.953125 -5.976562 0.953125 -7.53125 C 0.953125 -9.082031 1.273438 -10.445312 1.921875 -11.625 C 2.578125 -12.800781 3.476562 -13.703125 4.625 -14.328125 C 5.78125 -14.960938 7.066406 -15.28125 8.484375 -15.28125 C 10.410156 -15.28125 11.910156 -14.675781 12.984375 -13.46875 L 12.984375 -20.78125 Z M 9.234375 -3.359375 C 10.335938 -3.359375 11.253906 -3.734375 11.984375 -4.484375 C 12.710938 -5.242188 13.078125 -6.257812 13.078125 -7.53125 C 13.078125 -8.800781 12.710938 -9.8125 11.984375 -10.5625 C 11.253906 -11.320312 10.335938 -11.703125 9.234375 -11.703125 C 8.117188 -11.703125 7.195312 -11.320312 6.46875 -10.5625 C 5.738281 -9.8125 5.375 -8.800781 5.375 -7.53125 C 5.375 -6.257812 5.738281 -5.242188 6.46875 -4.484375 C 7.195312 -3.734375 8.117188 -3.359375 9.234375 -3.359375 Z M 9.234375 -3.359375 "/></g></g></g><g fill="#ffffff" fill-opacity="1"><g transform="translate(151.865761, 49.042803)"><g><path d="M 6.1875 -13.078125 C 6.707031 -13.804688 7.410156 -14.351562 8.296875 -14.71875 C 9.179688 -15.09375 10.207031 -15.28125 11.375 -15.28125 L 11.375 -11.25 C 10.882812 -11.289062 10.554688 -11.3125 10.390625 -11.3125 C 9.140625 -11.3125 8.160156 -10.960938 7.453125 -10.265625 C 6.742188 -9.566406 6.390625 -8.515625 6.390625 -7.109375 L 6.390625 0 L 2.015625 0 L 2.015625 -15.0625 L 6.1875 -15.0625 Z M 6.1875 -13.078125 "/></g></g></g><g fill="#ffffff" fill-opacity="1"><g transform="translate(166.058812, 49.042803)"><g><path d="M 17.1875 -15.0625 L 17.1875 0 L 13.046875 0 L 13.046875 -1.796875 C 12.472656 -1.140625 11.78125 -0.640625 10.96875 -0.296875 C 10.164062 0.046875 9.300781 0.21875 8.375 0.21875 C 6.394531 0.21875 4.828125 -0.347656 3.671875 -1.484375 C 2.515625 -2.617188 1.9375 -4.304688 1.9375 -6.546875 L 1.9375 -15.0625 L 6.296875 -15.0625 L 6.296875 -7.203125 C 6.296875 -4.773438 7.316406 -3.5625 9.359375 -3.5625 C 10.398438 -3.5625 11.238281 -3.898438 11.875 -4.578125 C 12.507812 -5.253906 12.828125 -6.265625 12.828125 -7.609375 L 12.828125 -15.0625 Z M 17.1875 -15.0625 "/></g></g></g><g fill="#ffffff" fill-opacity="1"><g transform="translate(187.41793, 49.042803)"><g><path d="M 21.3125 -15.28125 C 23.195312 -15.28125 24.691406 -14.722656 25.796875 -13.609375 C 26.910156 -12.503906 27.46875 -10.84375 27.46875 -8.625 L 27.46875 0 L 23.09375 0 L 23.09375 -7.953125 C 23.09375 -9.148438 22.84375 -10.039062 22.34375 -10.625 C 21.851562 -11.21875 21.15625 -11.515625 20.25 -11.515625 C 19.21875 -11.515625 18.398438 -11.179688 17.796875 -10.515625 C 17.203125 -9.847656 16.90625 -8.863281 16.90625 -7.5625 L 16.90625 0 L 12.546875 0 L 12.546875 -7.953125 C 12.546875 -10.328125 11.59375 -11.515625 9.6875 -11.515625 C 8.675781 -11.515625 7.875 -11.179688 7.28125 -10.515625 C 6.6875 -9.847656 6.390625 -8.863281 6.390625 -7.5625 L 6.390625 0 L 2.015625 0 L 2.015625 -15.0625 L 6.1875 -15.0625 L 6.1875 -13.328125 C 6.75 -13.960938 7.4375 -14.445312 8.25 -14.78125 C 9.0625 -15.113281 9.953125 -15.28125 10.921875 -15.28125 C 11.984375 -15.28125 12.941406 -15.070312 13.796875 -14.65625 C 14.660156 -14.238281 15.351562 -13.628906 15.875 -12.828125 C 16.488281 -13.609375 17.265625 -14.210938 18.203125 -14.640625 C 19.148438 -15.066406 20.1875 -15.28125 21.3125 -15.28125 Z M 21.3125 -15.28125 "/></g></g></g></svg>